<svg width="25" height="18" viewBox="0 0 25 18" fill="none" xmlns="http://www.w3.org/2000/svg">
    <path d="M21.9151 2.22834C18.8518 -0.0639775 15.9168 0.000448009 15.9168 0.000448009L15.6169 0.343159C19.2587 1.43572 20.9511 3.04234 20.9511 3.04234C15.7407 0.173675 9.10403 0.194259 3.68455 3.04234C3.68455 3.04234 5.44114 1.34991 9.29731 0.257347L9.08318 0.000180321C9.08318 0.000180321 6.1696 -0.0639775 3.08493 2.22807C3.08493 2.22807 0 7.77641 0 14.6103C0 14.6103 1.79963 17.6952 6.53397 17.8452C6.53397 17.8452 7.32659 16.9026 7.96924 16.0886C5.24867 15.2746 4.22026 13.5822 4.22026 13.5822C5.92954 14.6517 7.6578 15.3211 9.81164 15.7459C13.3157 16.4672 17.6745 15.7256 20.93 13.5822C20.93 13.5822 19.8588 15.3174 17.0524 16.11C17.6951 16.9026 18.4663 17.8238 18.4663 17.8238C23.2006 17.6739 25 14.5889 25 14.6106C24.9997 7.77667 21.9151 2.22834 21.9151 2.22834ZM8.50469 12.6182C7.30493 12.6182 6.31957 11.5684 6.31957 10.2617C6.40725 7.13215 10.624 7.14178 10.6898 10.2617C10.6898 11.5684 9.72556 12.6182 8.50469 12.6182ZM16.3237 12.6182C15.1239 12.6182 14.1386 11.5684 14.1386 10.2617C14.2348 7.1383 18.3989 7.13696 18.5088 10.2617C18.5088 11.5684 17.5448 12.6182 16.3237 12.6182Z" fill="white"/>
</svg>
