<svg width="25" height="21" viewBox="0 0 25 21" fill="none" xmlns="http://www.w3.org/2000/svg">
    <path d="M25 2.40312C24.0638 2.81809 23.0707 3.09028 22.0537 3.21062C23.1253 2.56993 23.9272 1.56142 24.31 0.373116C23.3033 0.971207 22.2015 1.3923 21.0525 1.61812C20.3485 0.868647 19.4356 0.347977 18.4321 0.123626C17.4286 -0.100726 16.3808 -0.0184098 15.4247 0.359899C14.4685 0.738208 13.6481 1.39506 13.0698 2.24527C12.4914 3.09549 12.1819 4.09985 12.1812 5.12812C12.1806 5.52142 12.2246 5.91352 12.3125 6.29687C10.2734 6.1945 8.27871 5.66452 6.45774 4.74133C4.63677 3.81814 3.03027 2.52237 1.7425 0.938117C1.08658 2.06731 0.885625 3.40403 1.18055 4.67617C1.47548 5.9483 2.24412 7.06024 3.33 7.78562C2.51491 7.76063 1.71766 7.54075 1.005 7.14437V7.20937C1.0052 8.3937 1.41507 9.5415 2.1651 10.4581C2.91513 11.3747 3.95913 12.0036 5.12 12.2381C4.6796 12.3579 4.22513 12.418 3.76875 12.4169C3.44457 12.417 3.12108 12.3869 2.8025 12.3269C3.13006 13.3458 3.76783 14.2369 4.62664 14.8757C5.48546 15.5144 6.5224 15.8688 7.5925 15.8894C5.44177 17.5727 2.71177 18.3354 0 18.0106C2.34507 19.5181 5.07468 20.3183 7.8625 20.3156C9.78221 20.3286 11.6854 19.96 13.4614 19.2313C15.2375 18.5026 16.8511 17.4283 18.2085 16.0708C19.5659 14.7132 20.6401 13.0995 21.3687 11.3234C22.0972 9.54726 22.4656 7.64407 22.4525 5.72437C22.4525 5.50187 22.4471 5.28103 22.4362 5.06187C23.4419 4.33487 24.3101 3.43456 25 2.40312Z" fill="white"/>
</svg>
